<svg xmlns="http://www.w3.org/2000/svg" width="60" height="60" enable-background="new" viewBox="0 0 60 60"><path d="m30 8c-12.138 0-22 9.8616-22 22 4.18e-4 3.5502 0.90843 7.0256 2.5508 10.168l-2.5234 10.6a1.0001 1.0001 0 0 0 1.2051 1.2051l10.6-2.5234c3.1424 1.6423 6.6178 2.5504 10.168 2.5508 12.138 0 22-9.8616 22-22s-9.8616-22-22-22zm0 2c11.058 0 20 8.9425 20 20s-8.9425 20-20 20c-3.3655-3.96e-4 -6.6772-0.85048-9.627-2.4707a1.0001 1.0001 0 0 0-0.71289-0.095703l-9.3105 2.2168 2.2168-9.3105a1.0001 1.0001 0 0 0-0.095703-0.71289c-1.6202-2.9498-2.4703-6.2615-2.4707-9.627 0-11.058 8.9425-20 20-20z" color="#000" style="font-feature-settings:normal;font-variant-alternates:normal;font-variant-caps:normal;font-variant-east-asian:normal;font-variant-ligatures:normal;font-variant-numeric:normal;font-variant-position:normal;font-variation-settings:normal;inline-size:0;isolation:auto;mix-blend-mode:normal;shape-margin:0;shape-padding:0;text-decoration-color:#000;text-decoration-line:none;text-decoration-style:solid;text-indent:0;text-orientation:mixed;text-transform:none"/><path d="M20 27c-1.645 0-3 1.355-3 3s1.355 3 3 3 3-1.355 3-3-1.355-3-3-3zm0 2c.56413 0 1 .43587 1 1s-.43587 1-1 1-1-.43587-1-1 .43587-1 1-1zM30 27c-1.645 0-3 1.355-3 3s1.355 3 3 3 3-1.355 3-3-1.355-3-3-3zm0 2c.56413 0 1 .43587 1 1s-.43587 1-1 1-1-.43587-1-1 .43587-1 1-1zM40 27c-1.645 0-3 1.355-3 3s1.355 3 3 3 3-1.355 3-3-1.355-3-3-3zm0 2c.56413 0 1 .43587 1 1s-.43587 1-1 1-1-.43587-1-1 .43587-1 1-1z" color="#000" style="font-feature-settings:normal;font-variant-alternates:normal;font-variant-caps:normal;font-variant-east-asian:normal;font-variant-ligatures:normal;font-variant-numeric:normal;font-variant-position:normal;font-variation-settings:normal;inline-size:0;isolation:auto;mix-blend-mode:normal;shape-margin:0;shape-padding:0;text-decoration-color:#000;text-decoration-line:none;text-decoration-style:solid;text-indent:0;text-orientation:mixed;text-transform:none"/></svg>